<?xml version="1.0" encoding="utf-8"?>
<!-- Generator: Adobe Illustrator 28.0.0, SVG Export Plug-In . SVG Version: 6.00 Build 0)  -->
<svg version="1.1" xmlns="http://www.w3.org/2000/svg" xmlns:xlink="http://www.w3.org/1999/xlink" x="0px" y="0px"
	 width="841.68px" height="595.199px" viewBox="0 0 841.68 595.199" enable-background="new 0 0 841.68 595.199"
	 xml:space="preserve">
<g name="528">
	<rect name="52801" x="676.979" y="189.37" width="1" height="1"/>
	<rect name="52803" x="683.497" y="225.236" width="1" height="1"/>
	<rect name="52805" x="697.718" y="233.417" width="1" height="1"/>
	<rect name="52811" x="730.094" y="227.87" width="1" height="1"/>
	<rect name="52822" x="686.41" y="186.236" width="1" height="1"/>
	<rect name="52824" x="742.315" y="212.22" width="1" height="1"/>
	<rect name="52826" x="668.094" y="209.175" width="1" height="1"/>
	<rect name="52828" x="671.649" y="218.614" width="1" height="1"/>
	<rect name="52829" x="719.537" y="240.44" width="1" height="1"/>
	<rect name="52831" x="725.436" y="239.44" width="1" height="1"/>
	<rect name="52832" x="749.678" y="182.255" width="1" height="1"/>
	<rect name="52833" x="747.331" y="174.114" width="1" height="1"/>
</g>
<g name="527">
	<rect name="52705" x="452.801" y="261.789" width="1" height="1"/>
	<rect name="52711" x="477.32" y="281.614" width="1" height="1"/>
	<rect name="52724" x="468.102" y="258.523" width="1" height="1"/>
	<rect name="52733" x="467.319" y="288.593" width="1" height="1"/>
	<rect name="52734" x="450.771" y="286.536" width="1" height="1"/>
	<rect name="52783" x="484.497" y="258.523" width="1" height="1"/>
</g>
<g name="526">
	<rect name="52601" x="137.359" y="424.73" width="1" height="1"/>
	<rect name="52603" x="118.935" y="339.052" width="1" height="1"/>
	<rect name="52605" x="91.222" y="381.56" width="1" height="1"/>
	<rect name="52611" x="107.697" y="417.378" width="1" height="1"/>
	<rect name="52622" x="145.425" y="410.252" width="1" height="1"/>
	<rect name="52624" x="158.102" y="398.344" width="1" height="1"/>
	<rect name="52626" x="159.174" y="360.481" width="1" height="1"/>
	<rect name="52628" x="137.457" y="352.927" width="1" height="1"/>
	<rect name="52629" x="101.559" y="360.481" width="1" height="1"/>
	<rect name="52631" x="145.097" y="403.024" width="1" height="1"/>
	<rect name="52632" x="100.98" y="375.915" width="1" height="1"/>
	<rect name="52633" x="92.756" y="419.312" width="1" height="1"/>
	<rect name="52634" x="143.226" y="423.463" width="1" height="1"/>
	<rect name="52635" x="142.084" y="359.208" width="1" height="1"/>
	<rect name="52636" x="86.906" y="404.624" width="1" height="1"/>
	<rect name="52637" x="89.206" y="412.684" width="1" height="1"/>
	<rect name="52638" x="175.587" y="364.522" width="1" height="1"/>
	<rect name="52642" x="110.534" y="341.678" width="1" height="1"/>
	<rect name="52648" x="104.071" y="343.341" width="1" height="1"/>
</g>
</svg>
