<?xml version="1.0" encoding="utf-8"?>
<!-- Generator: Adobe Illustrator 28.0.0, SVG Export Plug-In . SVG Version: 6.00 Build 0)  -->
<svg version="1.1" xmlns="http://www.w3.org/2000/svg" xmlns:xlink="http://www.w3.org/1999/xlink" x="0px" y="0px"
	 width="841.68px" height="595.199px" viewBox="0 0 841.68 595.199" enable-background="new 0 0 841.68 595.199"
	 xml:space="preserve">
<g id="_x35_28">
	<rect id="_x35_2838" x="676.979" y="189.37" width="1" height="1"/>
	<rect id="_x35_2837" x="683.497" y="225.236" width="1" height="1"/>
	<rect id="_x35_2836" x="697.718" y="233.417" width="1" height="1"/>
	<rect id="_x35_2835" x="730.094" y="227.87" width="1" height="1"/>
	<rect id="_x35_2828" x="686.41" y="186.236" width="1" height="1"/>
	<rect id="_x35_2824" x="742.315" y="212.22" width="1" height="1"/>
	<rect id="_x35_2811" x="668.094" y="209.175" width="1" height="1"/>
	<rect id="_x35_2810" x="671.649" y="218.614" width="1" height="1"/>
	<rect id="_x35_2809" x="719.537" y="240.44" width="1" height="1"/>
	<rect id="_x35_2807" x="725.436" y="239.44" width="1" height="1"/>
	<rect id="_x35_2806" x="749.678" y="182.255" width="1" height="1"/>
	<rect id="_x35_2805" x="747.331" y="174.114" width="1" height="1"/>
</g>
<g id="_x35_27">
	<rect id="_x35_2783" x="452.801" y="261.789" width="1" height="1"/>
	<rect id="_x35_2734" x="477.32" y="281.614" width="1" height="1"/>
	<rect id="_x35_2733" x="468.102" y="258.523" width="1" height="1"/>
	<rect id="_x35_2724" x="467.319" y="288.593" width="1" height="1"/>
	<rect id="_x35_2711" x="450.771" y="286.536" width="1" height="1"/>
	<rect id="_x35_2705" x="484.497" y="258.523" width="1" height="1"/>
</g>
<g id="_x35_26">
	<rect id="_x35_2648" x="137.359" y="424.73" width="1" height="1"/>
	<rect id="_x35_2642" x="118.935" y="339.052" width="1" height="1"/>
	<rect id="_x35_2638" x="91.222" y="381.56" width="1" height="1"/>
	<rect id="_x35_2637" x="107.697" y="417.378" width="1" height="1"/>
	<rect id="_x35_2635" x="145.425" y="410.252" width="1" height="1"/>
	<rect id="_x35_2634" x="158.102" y="398.344" width="1" height="1"/>
	<rect id="_x35_2633" x="159.174" y="360.481" width="1" height="1"/>
	<rect id="_x35_2632" x="137.457" y="352.927" width="1" height="1"/>
	<rect id="_x35_2631" x="101.559" y="360.481" width="1" height="1"/>
	<rect id="_x35_2629" x="145.097" y="403.024" width="1" height="1"/>
	<rect id="_x35_2628" x="100.98" y="375.915" width="1" height="1"/>
	<rect id="_x35_2626" x="92.756" y="419.312" width="1" height="1"/>
	<rect id="_x35_2624_00000147219647730298110290000017925627893609734814_" x="143.226" y="423.463" width="1" height="1"/>
	<rect id="_x35_2622" x="142.084" y="359.208" width="1" height="1"/>
	<rect id="_x35_2612" x="86.906" y="404.624" width="1" height="1"/>
	<rect id="_x35_2611" x="89.206" y="412.684" width="1" height="1"/>
	<rect id="_x35_2605" x="175.587" y="364.522" width="1" height="1"/>
	<rect id="_x35_2603" x="110.534" y="341.678" width="1" height="1"/>
	<rect id="_x35_2601" x="104.071" y="343.341" width="1" height="1"/>
</g>
</svg>
